<svg height="250" version="1.1" id="Ebene_1" xmlns="http://www.w3.org/2000/svg" xmlns:xlink="http://www.w3.org/1999/xlink" x="0px" y="0px"
	 width="340.157px" height="340.157px" viewBox="0 0 340.157 340.157" enable-background="new 0 0 340.157 340.157"
	 xml:space="preserve">
<g>
	<defs>
		<rect id="SVGID_1_" width="340.157" height="340.157"/>
	</defs>
	<clipPath id="SVGID_2_">
		<use xlink:href="#SVGID_1_"  overflow="visible"/>
	</clipPath>
	<path clip-path="url(#SVGID_2_)" fill="#000001" d="M33.458,0C33.458,0,0,0,0,33.458V306.7c0,0,0,33.457,33.458,33.457H306.7
		c0,0,33.458,0,33.458-33.457V33.458c0,0,0-33.458-33.458-33.458H33.458z"/>
	<path clip-path="url(#SVGID_2_)" fill="#999999" d="M322.126,282.327c-1.191-0.685-2.909-1.026-5.153-1.026
		c-3.05,0-5.496,1.035-7.336,3.104v-2.577h-6.574v28.162h6.574v-16.04c0-1.999,0.591-3.69,1.774-5.075s2.537-2.077,4.062-2.077
		c1.402,0,2.69,0.385,3.866,1.157L322.126,282.327z M289.415,299.366c0,3.943-1.972,5.916-5.916,5.916
		c-2.928,0-4.392-1.263-4.392-3.786c0-3.401,2.595-5.103,7.784-5.103c0.561,0,1.401,0.115,2.523,0.342V299.366z M291.571,309.463
		c0.754,0.701,1.604,1.052,2.551,1.052c0.859,0,1.621-0.109,2.287-0.329c0.667-0.219,1.271-0.802,1.815-1.749
		c-1.508-0.963-2.262-3.32-2.262-7.072v-6.022c0-5.451-1-9.154-2.997-11.109c-1.999-1.955-5.146-2.932-9.44-2.932
		c-3.12,0-5.811,0.544-8.073,1.63l1.42,5.103c1.666-0.824,3.734-1.236,6.206-1.236c4.189,0,6.284,1.656,6.284,4.969
		c-1.051-0.263-1.963-0.394-2.734-0.394c-4.506,0-7.98,0.92-10.426,2.761s-3.668,4.391-3.668,7.652c0,2.787,0.867,4.938,2.604,6.455
		c1.734,1.517,4.119,2.274,7.151,2.274c1.613,0,3.16-0.312,4.642-0.934c1.48-0.622,2.52-1.424,3.116-2.406
		C290.31,307.999,290.817,308.762,291.571,309.463 M252.997,291.451c3.19,0,5.426,0.499,6.705,1.499
		c1.279,0.999,1.919,2.594,1.919,4.784c0,2.402-0.688,4.12-2.063,5.154c-1.376,1.035-3.589,1.552-6.64,1.552
		c-0.858,0-1.98-0.062-3.365-0.185V291.53C251.183,291.477,252.33,291.451,252.997,291.451 M253.471,276.831
		c4.049,0,6.073,1.48,6.073,4.443c0,3.349-2.226,5.022-6.679,5.022c-1.157,0-2.261-0.035-3.312-0.105v-9.229
		C251.095,276.875,252.4,276.831,253.471,276.831 M264.75,306.898c2.647-2.06,3.972-4.842,3.972-8.349
		c0-5.206-2.394-8.642-7.18-10.307c3.227-1.771,4.84-4.182,4.84-7.231c0-3.173-1.128-5.614-3.38-7.323
		c-2.253-1.71-5.378-2.563-9.374-2.563c-2.087,0-5.724,0.123-10.912,0.368v38.496h11.779
		C258.686,309.989,262.104,308.959,264.75,306.898 M229.174,303.257c-0.28,0.386-0.882,0.767-1.802,1.144s-1.695,0.565-2.327,0.565
		c-5.645,0-8.467-2.927-8.467-8.782c0-2.998,0.71-5.298,2.13-6.901c1.42-1.604,3.445-2.406,6.074-2.406
		c1.525,0,2.989,0.561,4.392,1.682V303.257z M235.747,309.989v-40.231l-6.573,1.577v11.281c-1.754-0.877-3.699-1.315-5.838-1.315
		c-3.892,0-7.131,1.398-9.716,4.194c-2.586,2.796-3.879,6.421-3.879,10.873c0,4.453,1.127,7.924,3.379,10.413
		c2.253,2.488,5.343,3.733,9.27,3.733c1.385,0,2.726-0.224,4.022-0.671s2.219-0.968,2.762-1.563v1.709H235.747z M203.957,309.989
		v-17.276c0-3.593-0.969-6.395-2.905-8.401c-1.938-2.007-4.58-3.011-7.929-3.011c-3.488,0-6.127,1.052-7.915,3.155l-1.209-2.629
		h-4.732v28.162h6.573v-20.354c0.613-0.806,1.468-1.48,2.563-2.023c1.095-0.544,2.125-0.815,3.09-0.815
		c2.086,0,3.589,0.552,4.509,1.656c0.922,1.104,1.382,2.857,1.382,5.259v16.277H203.957z M172.166,310.015v-28.188h-6.574v19.353
		c-0.42,1.018-1.271,1.911-2.55,2.683c-1.28,0.771-2.665,1.156-4.155,1.156c-3.243,0-4.864-1.805-4.864-5.417v-17.774h-6.574v18.274
		c0,6.942,3.269,10.413,9.808,10.413c1.367,0,2.866-0.281,4.496-0.842s2.91-1.236,3.839-2.024v2.366H172.166z M123.783,289.084
		c1.21-1.612,2.84-2.419,4.891-2.419c4.453,0,6.679,3.059,6.679,9.177c0,2.98-0.601,5.277-1.801,6.889
		c-1.201,1.613-2.827,2.42-4.878,2.42c-4.47,0-6.705-3.103-6.705-9.309C121.969,292.95,122.574,290.697,123.783,289.084
		 M118.695,306.505c2.375,2.673,5.702,4.01,9.979,4.01c4.19,0,7.49-1.324,9.9-3.971c2.41-2.647,3.616-6.214,3.616-10.702
		c0-4.505-1.183-8.055-3.55-10.649c-2.367-2.594-5.689-3.892-9.966-3.892c-4.067,0-7.341,1.35-9.821,4.049
		c-2.481,2.7-3.721,6.197-3.721,10.492C115.132,300.276,116.32,303.832,118.695,306.505 M97.726,310.646
		c4.137,0,7.437-1.008,9.9-3.023s3.695-4.584,3.695-7.704c0-1.736-0.299-3.31-0.894-4.72c-0.597-1.411-1.464-2.647-2.604-3.708
		c-1.139-1.061-2.997-2.223-5.574-3.484c-4.891-2.384-7.336-4.68-7.336-6.889c0-1.332,0.433-2.415,1.301-3.247
		c0.868-0.833,2.091-1.249,3.668-1.249c2.665,0,5.198,0.858,7.599,2.576l2.078-5.891c-2.087-1.665-5.356-2.498-9.808-2.498
		c-3.419,0-6.219,0.982-8.401,2.945c-2.183,1.964-3.274,4.436-3.274,7.416c0,1.595,0.276,3.05,0.828,4.364
		c0.552,1.314,1.341,2.449,2.367,3.405c1.025,0.955,3.015,2.175,5.969,3.655c2.953,1.481,4.904,2.818,5.85,4.01
		c0.947,1.192,1.42,2.445,1.42,3.761c0,2.805-2.007,4.207-6.021,4.207c-2.613,0-5.268-0.947-7.968-2.841l-2.524,6.127
		C90.888,309.717,94.131,310.646,97.726,310.646 M75.427,281.301c-4.751,0-8.502,1.367-11.254,4.102
		c-2.753,2.735-4.129,6.32-4.129,10.756c0,4.505,1.258,8.023,3.774,10.557c2.515,2.533,5.947,3.8,10.294,3.8
		c1.946,0,3.633-0.158,5.062-0.474c1.429-0.315,3.098-1.069,5.009-2.261l-2.419-5.181c-1.858,1.613-4.006,2.419-6.442,2.419
		c-5.627,0-8.441-2.954-8.441-8.86c0-2.929,0.723-5.221,2.169-6.876c1.447-1.657,3.414-2.485,5.904-2.485
		c2.594,0,4.663,0.727,6.205,2.182l2.814-4.917C81.554,282.221,78.706,281.301,75.427,281.301"/>
	<path clip-path="url(#SVGID_2_)" fill="#036BB3" d="M41.533,301.364c0,2.928,0.754,5.185,2.261,6.771
		c1.508,1.587,3.664,2.38,6.469,2.38c2.822,0,4.996-0.263,6.521-0.789v-6.048c-1.367,0.859-2.84,1.288-4.417,1.288
		c-1.578,0-2.683-0.416-3.314-1.249c-0.631-0.832-0.946-2.256-0.946-4.273v-12.331h7.73v-5.285h-7.73v-8.152l-6.574,2.42v5.732
		h-3.261v5.285h3.261V301.364z"/>
	<path clip-path="url(#SVGID_2_)" fill="#E3011B" d="M38.272,271.309c-2.244-0.684-4.146-1.024-5.706-1.024
		c-3.015,0-5.474,1.06-7.376,3.181c-1.902,2.121-2.923,4.909-3.063,8.362H18v5.417h4.102v22.744h6.573v-22.744h5.733v-5.417H28.57
		c-0.017-0.229-0.026-0.456-0.026-0.685c0-1.56,0.434-2.874,1.301-3.944c0.868-1.068,1.924-1.604,3.169-1.604
		c0.771,0,1.876,0.237,3.313,0.71L38.272,271.309z"/>
</g>
<polygon fill="#99989C" points="257.707,19.437 186.06,44.548 186.06,44.545 266.663,11.064 257.707,86.391 "/>
<g>
	<defs>
		<rect id="SVGID_3_" x="48.756" y="9.07" width="219.469" height="248.313"/>
	</defs>
	<clipPath id="SVGID_4_">
		<use xlink:href="#SVGID_3_"  overflow="visible"/>
	</clipPath>
	<polygon clip-path="url(#SVGID_4_)" fill="none" stroke="#99989C" stroke-width="2.5433" points="186.06,44.545 266.664,11.064 
		257.707,86.39 257.707,19.437 186.06,44.547 	"/>
</g>
<polygon fill="#99989C" points="239.796,48.936 123.366,86.391 123.366,78.023 248.754,36.172 248.754,36.174 248.546,206.245 
	240.175,206.372 "/>
<polygon fill="none" stroke="#99989C" stroke-width="2.5433" points="248.754,36.174 248.546,206.245 240.175,206.372 
	239.796,48.936 123.366,86.39 123.366,78.023 248.754,36.172 "/>
<polygon fill="#99989C" points="123.366,153.358 123.366,86.393 136.109,81.919 135.746,153.358 "/>
<polygon fill="none" stroke="#99989C" stroke-width="2.5433" points="123.366,86.393 123.366,153.358 135.746,153.358 
	136.109,81.919 "/>
<g>
	<defs>
		<rect id="SVGID_5_" x="48.756" y="9.07" width="219.469" height="248.313"/>
	</defs>
	<clipPath id="SVGID_6_">
		<use xlink:href="#SVGID_5_"  overflow="visible"/>
	</clipPath>
	<path clip-path="url(#SVGID_6_)" fill="#99989C" d="M134.16,147.903c6.046,9.757-4.393,24.472-23.314,32.864
		c-18.921,8.394-39.161,7.287-45.207-2.471c-6.044-9.756,4.394-24.471,23.314-32.864C107.875,137.04,128.115,138.146,134.16,147.903
		"/>
	<path clip-path="url(#SVGID_6_)" fill="none" stroke="#99989C" stroke-width="2.5433" d="M134.16,147.903
		c6.046,9.757-4.393,24.472-23.314,32.864c-18.921,8.394-39.161,7.287-45.207-2.471c-6.044-9.756,4.394-24.471,23.314-32.864
		C107.875,137.04,128.115,138.146,134.16,147.903z"/>
	<path clip-path="url(#SVGID_6_)" d="M78.68,179.058c-10.768-1.189-11.09-9.367-0.72-18.263
		c10.37-8.896,27.506-15.144,38.274-13.953c1.271,0.14,2.419,0.383,3.427,0.724"/>
	<path clip-path="url(#SVGID_6_)" fill="none" stroke="#99989C" stroke-width="2.5433" d="M78.68,179.058
		c-10.768-1.189-11.09-9.367-0.72-18.263c10.37-8.896,27.506-15.144,38.274-13.953c1.271,0.14,2.419,0.383,3.427,0.724"/>
	<path clip-path="url(#SVGID_6_)" fill="#99989C" d="M79.206,180.028c1.678-10.073,19.436-24.083,39.665-31.291
		c2.171-0.773,4.32-1.45,6.426-2.02"/>
	<path clip-path="url(#SVGID_6_)" fill="none" stroke="#99989C" stroke-width="2.5433" d="M79.206,180.028
		c1.678-10.073,19.436-24.083,39.665-31.291c2.171-0.773,4.32-1.45,6.426-2.02"/>
	<polygon clip-path="url(#SVGID_6_)" fill="#99989C" points="136.474,111.504 239.796,94.765 239.796,99.263 136.474,123.068 	"/>
	<polygon clip-path="url(#SVGID_6_)" fill="none" stroke="#99989C" stroke-width="2.5433" points="136.474,111.504 239.796,94.765 
		239.796,99.263 136.474,123.068 	"/>
	<polygon clip-path="url(#SVGID_6_)" fill="#99989C" points="137.682,87.685 234.162,56.594 233.798,90.763 225.303,91.444 
		225.303,86.393 186.06,94.765 195.018,78.025 	"/>
	<polygon clip-path="url(#SVGID_6_)" fill="none" stroke="#000000" stroke-width="0.4716" points="137.682,87.685 234.162,56.594 
		233.798,90.763 225.303,91.444 225.303,86.393 186.06,94.765 195.018,78.025 	"/>
	<path clip-path="url(#SVGID_6_)" fill="#99989C" d="M247.039,196.632c6.324,11.267-4.596,28.255-24.389,37.946
		c-19.792,9.691-40.964,8.416-47.287-2.85c-6.324-11.267,4.596-28.256,24.389-37.947
		C219.545,184.089,240.716,185.366,247.039,196.632"/>
	<path clip-path="url(#SVGID_6_)" fill="none" stroke="#99989C" stroke-width="2.5433" d="M247.039,196.632
		c6.324,11.267-4.595,28.255-24.389,37.946c-19.792,9.691-40.964,8.416-47.287-2.85c-6.324-11.267,4.596-28.256,24.389-37.947
		C219.545,184.089,240.716,185.366,247.039,196.632z"/>
	<path clip-path="url(#SVGID_6_)" d="M189.324,233.158c-11.264-1.374-11.601-10.815-0.752-21.088s28.775-17.486,40.039-16.112
		c1.329,0.162,2.53,0.443,3.585,0.837"/>
	<path clip-path="url(#SVGID_6_)" fill="none" stroke="#000000" stroke-width="2.5433" d="M189.324,233.158
		c-11.264-1.374-11.601-10.815-0.752-21.088s28.775-17.486,40.039-16.112c1.329,0.162,2.53,0.443,3.585,0.837"/>
	<path clip-path="url(#SVGID_6_)" fill="#99989C" d="M189.876,234.27c1.756-11.632,20.332-27.81,41.493-36.131
		c2.27-0.894,4.519-1.674,6.721-2.332"/>
	<path clip-path="url(#SVGID_6_)" fill="none" stroke="#99989C" stroke-width="2.5433" d="M189.876,234.27
		c1.756-11.632,20.332-27.81,41.493-36.131c2.27-0.894,4.519-1.674,6.721-2.332"/>
	<path clip-path="url(#SVGID_6_)" fill="#99989C" d="M257.164,215.105c2.086,15.077-10.447,31.136-27.992,35.866
		c-6.562,1.771-13.205,1.75-19.016-0.059"/>
</g>
<g>
	<defs>
		<rect id="SVGID_7_" x="48.756" y="9.07" width="219.469" height="248.313"/>
	</defs>
	<clipPath id="SVGID_8_">
		<use xlink:href="#SVGID_7_"  overflow="visible"/>
	</clipPath>
	<path clip-path="url(#SVGID_8_)" fill="none" stroke="#99989C" stroke-width="2.5433" d="M257.164,215.105
		c2.086,15.077-10.447,31.136-27.992,35.866c-6.562,1.771-13.205,1.75-19.016-0.059"/>
</g>
<g>
	<defs>
		<rect id="SVGID_9_" x="48.756" y="9.07" width="219.469" height="248.313"/>
	</defs>
	<clipPath id="SVGID_10_">
		<use xlink:href="#SVGID_9_"  overflow="visible"/>
	</clipPath>
	<path clip-path="url(#SVGID_10_)" d="M259.438,212.435c-6.601,18.744-30.56,36.803-58.064,43.764"/>
</g>
<g>
	<defs>
		<rect id="SVGID_11_" x="48.756" y="9.07" width="219.469" height="248.313"/>
	</defs>
	<clipPath id="SVGID_12_">
		<use xlink:href="#SVGID_11_"  overflow="visible"/>
	</clipPath>
	<path clip-path="url(#SVGID_12_)" fill="none" stroke="#000000" stroke-width="2.5433" d="M259.438,212.435
		c-6.601,18.744-30.56,36.803-58.064,43.764"/>
</g>
<g>
	<defs>
		<rect id="SVGID_13_" x="48.756" y="9.07" width="219.469" height="248.313"/>
	</defs>
	<clipPath id="SVGID_14_">
		<use xlink:href="#SVGID_13_"  overflow="visible"/>
	</clipPath>
	<path clip-path="url(#SVGID_14_)" fill="#99989C" d="M53.184,162.296c-0.742-15.188,13.173-30.22,31.078-33.575
		c6.697-1.256,13.314-0.721,18.944,1.53"/>
</g>
<g>
	<defs>
		<rect id="SVGID_15_" x="48.756" y="9.07" width="219.469" height="248.313"/>
	</defs>
	<clipPath id="SVGID_16_">
		<use xlink:href="#SVGID_15_"  overflow="visible"/>
	</clipPath>
	<path clip-path="url(#SVGID_16_)" fill="none" stroke="#99989C" stroke-width="2.5433" d="M53.184,162.296
		c-0.742-15.188,13.173-30.22,31.078-33.575c6.697-1.256,13.314-0.72,18.944,1.531"/>
</g>
<g>
	<defs>
		<rect id="SVGID_17_" x="48.756" y="9.07" width="219.469" height="248.313"/>
	</defs>
	<clipPath id="SVGID_18_">
		<use xlink:href="#SVGID_17_"  overflow="visible"/>
	</clipPath>
	<path clip-path="url(#SVGID_18_)" d="M49.974,167.147c7.662-17.545,33.062-33.65,61.555-39.03"/>
</g>
<g>
	<defs>
		<rect id="SVGID_19_" x="48.756" y="9.07" width="219.469" height="248.313"/>
	</defs>
	<clipPath id="SVGID_20_">
		<use xlink:href="#SVGID_19_"  overflow="visible"/>
	</clipPath>
	<path clip-path="url(#SVGID_20_)" fill="none" stroke="#000000" stroke-width="2.5433" d="M49.974,167.147
		c7.662-17.545,33.062-33.65,61.555-39.03"/>
</g>
</svg>
