<?xml version="1.0" encoding="utf-8"?>
<!-- Generator: Adobe Illustrator 16.0.0, SVG Export Plug-In . SVG Version: 6.00 Build 0)  -->
<!DOCTYPE svg PUBLIC "-//W3C//DTD SVG 1.1//EN" "http://www.w3.org/Graphics/SVG/1.1/DTD/svg11.dtd">
<svg version="1.1" id="Ebene_1" xmlns="http://www.w3.org/2000/svg" xmlns:xlink="http://www.w3.org/1999/xlink" x="0px" y="0px"
	 width="340.157px" height="340.157px" viewBox="0 0 340.157 340.157" enable-background="new 0 0 340.157 340.157"
	 xml:space="preserve">
<g>
	<defs>
		<rect id="SVGID_1_" width="340.157" height="340.157"/>
	</defs>
	<clipPath id="SVGID_2_">
		<use xlink:href="#SVGID_1_"  overflow="visible"/>
	</clipPath>
	<path clip-path="url(#SVGID_2_)" d="M33.458,0C33.458,0,0,0,0,33.458V306.7c0,0,0,33.457,33.458,33.457H306.7
		c0,0,33.458,0,33.458-33.457V33.458c0,0,0-33.458-33.458-33.458H33.458z"/>
	<path clip-path="url(#SVGID_2_)" fill="#989898" d="M320.072,284.915c-1.126-0.646-2.748-0.968-4.867-0.968
		c-2.88,0-5.188,0.977-6.928,2.93v-2.434h-6.207v26.594h6.207V295.89c0-1.887,0.559-3.483,1.676-4.792
		c1.118-1.307,2.397-1.962,3.837-1.962c1.324,0,2.541,0.365,3.65,1.093L320.072,284.915z M289.184,301.005
		c0,3.725-1.862,5.587-5.587,5.587c-2.765,0-4.146-1.192-4.146-3.575c0-3.212,2.449-4.817,7.349-4.817
		c0.53,0,1.325,0.107,2.385,0.322V301.005z M291.22,310.54c0.712,0.662,1.515,0.993,2.408,0.993c0.812,0,1.531-0.104,2.16-0.311
		s1.2-0.757,1.713-1.65c-1.424-0.911-2.135-3.138-2.135-6.681v-5.686c0-5.148-0.944-8.645-2.831-10.49s-4.857-2.769-8.914-2.769
		c-2.945,0-5.486,0.513-7.623,1.538l1.341,4.818c1.573-0.778,3.526-1.168,5.86-1.168c3.956,0,5.934,1.565,5.934,4.693
		c-0.992-0.248-1.854-0.372-2.581-0.372c-4.255,0-7.536,0.869-9.846,2.606c-2.309,1.738-3.464,4.147-3.464,7.227
		c0,2.632,0.82,4.664,2.458,6.095c1.639,1.432,3.89,2.148,6.754,2.148c1.523,0,2.984-0.294,4.383-0.882s2.379-1.345,2.942-2.271
		C290.027,309.158,290.507,309.878,291.22,310.54 M255.315,289.211c5.165,0,7.747,2.698,7.747,8.095
		c0,3.128-0.625,5.404-1.875,6.828s-3.373,2.135-6.369,2.135c-1.556,0-2.789-0.537-3.699-1.613v-13.881
		C252.078,289.731,253.478,289.211,255.315,289.211 M256.159,311.533c4.105,0,7.358-1.295,9.758-3.887
		c2.4-2.59,3.602-6.111,3.602-10.564c0-3.84-1.192-6.99-3.576-9.448s-5.521-3.687-9.41-3.687c-1.954,0-3.758,0.505-5.413,1.515
		v-12.415l-6.208,1.489v36.997h3.501l1.392-1.961C251.574,310.879,253.692,311.533,256.159,311.533 M232.993,304.68
		c-0.265,0.364-0.832,0.725-1.701,1.08c-0.869,0.356-1.602,0.534-2.197,0.534c-5.33,0-7.995-2.764-7.995-8.293
		c0-2.831,0.67-5.003,2.011-6.519c1.341-1.515,3.253-2.271,5.736-2.271c1.439,0,2.821,0.53,4.146,1.589V304.68z M239.2,311.037
		v-37.99l-6.207,1.489v10.652c-1.656-0.828-3.493-1.241-5.513-1.241c-3.674,0-6.733,1.319-9.174,3.96
		c-2.442,2.641-3.663,6.062-3.663,10.268c0,4.204,1.063,7.482,3.19,9.832c2.127,2.351,5.044,3.526,8.752,3.526
		c1.309,0,2.574-0.211,3.8-0.634c1.225-0.422,2.094-0.914,2.607-1.477v1.614H239.2z M209.182,311.037v-16.314
		c0-3.393-0.915-6.037-2.744-7.933s-4.325-2.843-7.486-2.843c-3.295,0-5.786,0.992-7.474,2.979l-1.143-2.483h-4.47v26.594h6.208
		v-19.22c0.579-0.761,1.386-1.397,2.421-1.911c1.034-0.514,2.007-0.771,2.917-0.771c1.97,0,3.39,0.522,4.258,1.565
		c0.87,1.043,1.305,2.697,1.305,4.966v15.37H209.182z M179.161,311.061v-26.617h-6.207v18.275c-0.397,0.96-1.201,1.804-2.409,2.532
		c-1.208,0.729-2.516,1.093-3.923,1.093c-3.063,0-4.594-1.705-4.594-5.115v-16.785h-6.207v17.258c0,6.555,3.087,9.832,9.261,9.832
		c1.292,0,2.707-0.266,4.246-0.794c1.54-0.53,2.748-1.167,3.626-1.912v2.233H179.161z M133.474,291.297
		c1.142-1.523,2.681-2.285,4.618-2.285c4.205,0,6.307,2.889,6.307,8.666c0,2.814-0.567,4.983-1.701,6.506
		c-1.134,1.523-2.669,2.284-4.606,2.284c-4.221,0-6.332-2.93-6.332-8.79C131.76,294.947,132.333,292.82,133.474,291.297
		 M128.669,307.747c2.243,2.523,5.384,3.786,9.423,3.786c3.956,0,7.072-1.249,9.349-3.749c2.275-2.499,3.414-5.868,3.414-10.106
		c0-4.254-1.118-7.605-3.352-10.056c-2.235-2.45-5.372-3.675-9.411-3.675c-3.84,0-6.932,1.274-9.274,3.823
		c-2.342,2.55-3.513,5.853-3.513,9.907C125.305,301.866,126.426,305.222,128.669,307.747 M107.613,311.099
		c1.068,0.289,2.487,0.435,4.259,0.435c3.144,0,5.632-0.707,7.461-2.123c1.829-1.415,2.744-3.356,2.744-5.822
		c0-1.854-0.514-3.436-1.54-4.743c-1.026-1.307-2.706-2.421-5.04-3.34c-2.334-0.918-3.857-1.651-4.569-2.197
		s-1.068-1.159-1.068-1.837c0-1.722,1.084-2.583,3.253-2.583c2.417,0,4.304,0.58,5.661,1.738l1.788-4.817
		c-2.433-1.241-5.032-1.861-7.797-1.861c-2.731,0-4.974,0.642-6.729,1.924c-1.754,1.283-2.632,3.075-2.632,5.376
		c0,3.427,2.293,6.092,6.878,7.995c2.102,0.878,3.518,1.639,4.246,2.284c0.729,0.646,1.093,1.474,1.093,2.483
		c0,1.722-1.209,2.582-3.625,2.582c-2.334,0-4.429-0.736-6.282-2.21l-2.21,4.941C105.176,310.217,106.545,310.809,107.613,311.099
		 M89.759,310.962c0.869,0.877,1.925,1.315,3.166,1.315c1.242,0,2.297-0.438,3.166-1.315s1.304-1.938,1.304-3.178
		c0-1.242-0.435-2.297-1.304-3.166s-1.924-1.305-3.166-1.305c-1.241,0-2.297,0.436-3.166,1.305s-1.303,1.924-1.303,3.166
		C88.456,309.024,88.89,310.085,89.759,310.962 M89.759,290.85c0.869,0.877,1.925,1.316,3.166,1.316
		c1.242,0,2.297-0.439,3.166-1.316s1.304-1.937,1.304-3.178c0-1.242-0.435-2.297-1.304-3.166s-1.924-1.304-3.166-1.304
		c-1.241,0-2.297,0.435-3.166,1.304s-1.303,1.924-1.303,3.166C88.456,288.913,88.89,289.973,89.759,290.85 M74.253,283.947
		c-4.486,0-8.029,1.291-10.627,3.874c-2.599,2.581-3.899,5.967-3.899,10.154c0,4.254,1.188,7.577,3.564,9.97
		c2.375,2.393,5.615,3.588,9.72,3.588c1.838,0,3.431-0.149,4.78-0.447c1.349-0.298,2.926-1.009,4.73-2.135l-2.284-4.893
		c-1.755,1.524-3.783,2.285-6.083,2.285c-5.314,0-7.971-2.789-7.971-8.368c0-2.764,0.683-4.929,2.049-6.493
		c1.365-1.563,3.223-2.347,5.574-2.347c2.45,0,4.403,0.688,5.86,2.062l2.657-4.644C80.038,284.815,77.348,283.947,74.253,283.947"/>
	<path clip-path="url(#SVGID_2_)" fill="#006AB1" d="M42.247,302.893c0,2.765,0.712,4.896,2.135,6.394
		c1.424,1.498,3.46,2.247,6.109,2.247c2.665,0,4.717-0.248,6.157-0.745v-5.711c-1.291,0.812-2.681,1.217-4.171,1.217
		c-1.49,0-2.533-0.393-3.129-1.18c-0.596-0.786-0.893-2.131-0.893-4.035v-11.645h7.3v-4.991h-7.3v-7.697l-6.208,2.284v5.413h-3.079
		v4.991h3.079V302.893z"/>
	<path clip-path="url(#SVGID_2_)" fill="#E1001A" d="M39.168,274.512c-2.119-0.646-3.915-0.969-5.388-0.969
		c-2.847,0-5.169,1.001-6.965,3.005c-1.796,2.003-2.76,4.635-2.893,7.896h-3.898v5.115h3.874v21.478h6.207v-21.478h5.413v-5.115
		h-5.512c-0.017-0.215-0.025-0.43-0.025-0.646c0-1.474,0.41-2.715,1.229-3.725s1.816-1.515,2.992-1.515
		c0.728,0,1.771,0.224,3.129,0.671L39.168,274.512z"/>
</g>
<polygon fill="#98989B" points="186.141,48.76 259.277,16.255 251.15,89.387 251.15,24.383 186.141,48.762 "/>
<g>
	<defs>
		<rect id="SVGID_3_" x="61.556" y="14.319" width="199.138" height="241.081"/>
	</defs>
	<clipPath id="SVGID_4_">
		<use xlink:href="#SVGID_3_"  overflow="visible"/>
	</clipPath>
	<polygon clip-path="url(#SVGID_4_)" fill="none" stroke="#98989B" stroke-width="2.387" points="186.141,48.76 259.277,16.255 
		251.15,89.387 251.15,24.383 186.141,48.762 	"/>
</g>
<polygon fill="#98989B" points="243.027,40.633 242.838,205.75 235.243,205.874 234.899,53.023 129.255,89.386 129.255,81.264 
	243.027,40.631 "/>
<polygon fill="none" stroke="#98989B" stroke-width="2.387" points="243.027,40.633 242.838,205.75 235.243,205.874 234.899,53.023 
	129.255,89.386 129.255,81.264 243.027,40.631 "/>
<polygon fill="#98989B" points="129.254,89.39 129.254,154.403 140.488,154.403 140.817,85.046 "/>
<polygon fill="none" stroke="#98989B" stroke-width="2.387" points="129.254,89.39 129.254,154.403 140.488,154.403 140.817,85.046 
	"/>
<g>
	<defs>
		<rect id="SVGID_5_" x="61.556" y="14.319" width="199.138" height="241.081"/>
	</defs>
	<clipPath id="SVGID_6_">
		<use xlink:href="#SVGID_5_"  overflow="visible"/>
	</clipPath>
	<path clip-path="url(#SVGID_6_)" fill="#98989B" d="M139.048,149.108c5.486,9.473-3.985,23.759-21.154,31.907
		c-17.168,8.148-35.533,7.074-41.018-2.398c-5.485-9.473,3.986-23.759,21.154-31.907C115.2,138.561,133.564,139.635,139.048,149.108
		"/>
	<path clip-path="url(#SVGID_6_)" fill="none" stroke="#98989B" stroke-width="2.387" d="M139.048,149.108
		c5.486,9.473-3.985,23.759-21.154,31.907c-17.168,8.148-35.533,7.074-41.018-2.398c-5.485-9.473,3.986-23.759,21.154-31.907
		C115.2,138.561,133.564,139.635,139.048,149.108z"/>
	<path clip-path="url(#SVGID_6_)" d="M88.708,179.355c-9.77-1.155-10.063-9.094-0.653-17.732
		c9.409-8.637,24.958-14.702,34.729-13.546c1.153,0.136,2.195,0.372,3.109,0.703"/>
	<path clip-path="url(#SVGID_6_)" fill="none" stroke="#98989B" stroke-width="2.387" d="M88.708,179.355
		c-9.77-1.155-10.063-9.094-0.653-17.732c9.409-8.637,24.958-14.702,34.729-13.546c1.153,0.136,2.195,0.372,3.109,0.703"/>
	<path clip-path="url(#SVGID_6_)" fill="#98989B" d="M89.186,180.298c1.522-9.78,17.635-23.382,35.99-30.379
		c1.97-0.751,3.92-1.407,5.83-1.961"/>
	<path clip-path="url(#SVGID_6_)" fill="none" stroke="#98989B" stroke-width="2.387" d="M89.186,180.298
		c1.522-9.78,17.635-23.382,35.99-30.379c1.97-0.751,3.92-1.407,5.83-1.961"/>
	<polygon clip-path="url(#SVGID_6_)" fill="#98989B" points="141.149,113.769 234.898,97.517 234.898,101.884 141.149,124.997 	"/>
	<polygon clip-path="url(#SVGID_6_)" fill="none" stroke="#98989B" stroke-width="2.387" points="141.149,113.769 234.898,97.517 
		234.898,101.884 141.149,124.997 	"/>
	<polygon clip-path="url(#SVGID_6_)" fill="#98989B" points="142.244,90.644 229.786,60.459 229.456,93.632 221.748,94.293 
		221.748,89.39 186.141,97.517 194.27,81.266 	"/>
	<polygon clip-path="url(#SVGID_6_)" fill="none" stroke="#000000" stroke-width="0.443" points="142.244,90.644 229.786,60.459 
		229.456,93.632 221.748,94.293 221.748,89.39 186.141,97.517 194.27,81.266 	"/>
	<path clip-path="url(#SVGID_6_)" fill="#98989B" d="M241.471,196.417c5.738,10.939-4.169,27.433-22.129,36.841
		c-17.959,9.41-37.169,8.172-42.906-2.767c-5.739-10.938,4.169-27.432,22.128-36.841C216.523,184.24,235.733,185.48,241.471,196.417
		"/>
	<path clip-path="url(#SVGID_6_)" fill="none" stroke="#98989B" stroke-width="2.387" d="M241.471,196.417
		c5.738,10.939-4.169,27.433-22.129,36.841c-17.959,9.41-37.169,8.172-42.906-2.767c-5.739-10.938,4.169-27.432,22.128-36.841
		C216.523,184.24,235.733,185.48,241.471,196.417z"/>
	<path clip-path="url(#SVGID_6_)" d="M189.103,231.88c-10.221-1.334-10.526-10.5-0.682-20.473
		c9.844-9.975,26.108-16.979,36.33-15.644c1.205,0.157,2.295,0.431,3.252,0.812"/>
	<path clip-path="url(#SVGID_6_)" fill="none" stroke="#000000" stroke-width="2.387" d="M189.103,231.88
		c-10.221-1.334-10.526-10.5-0.682-20.473c9.844-9.975,26.108-16.979,36.33-15.644c1.205,0.157,2.295,0.431,3.252,0.812"/>
	<path clip-path="url(#SVGID_6_)" fill="#98989B" d="M189.604,232.959c1.593-11.293,18.448-27,37.649-35.079
		c2.059-0.868,4.1-1.625,6.098-2.264"/>
	<path clip-path="url(#SVGID_6_)" fill="none" stroke="#98989B" stroke-width="2.387" d="M189.604,232.959
		c1.593-11.293,18.448-27,37.649-35.079c2.059-0.868,4.1-1.625,6.098-2.264"/>
	<path clip-path="url(#SVGID_6_)" fill="#98989B" d="M250.658,214.353c1.892,14.639-9.48,30.229-25.399,34.822
		c-5.954,1.718-11.981,1.698-17.255-0.057"/>
	<path clip-path="url(#SVGID_6_)" fill="none" stroke="#98989B" stroke-width="2.387" d="M250.658,214.353
		c1.892,14.639-9.48,30.229-25.399,34.822c-5.954,1.718-11.981,1.698-17.255-0.057"/>
	<path clip-path="url(#SVGID_6_)" d="M252.722,211.76c-5.989,18.198-27.729,35.729-52.686,42.489"/>
	<path clip-path="url(#SVGID_6_)" fill="none" stroke="#000000" stroke-width="2.387" d="M252.722,211.76
		c-5.989,18.198-27.729,35.729-52.686,42.489"/>
	<path clip-path="url(#SVGID_6_)" fill="#98989B" d="M65.575,163.082c-0.673-14.745,11.953-29.34,28.198-32.597
		c6.077-1.22,12.081-0.7,17.19,1.486"/>
	<path clip-path="url(#SVGID_6_)" fill="none" stroke="#98989B" stroke-width="2.387" d="M65.575,163.082
		c-0.673-14.745,11.953-29.34,28.198-32.597c6.077-1.22,12.081-0.7,17.19,1.486"/>
	<path clip-path="url(#SVGID_6_)" d="M62.662,167.791c6.952-17.034,29.999-32.67,55.852-37.893"/>
	<path clip-path="url(#SVGID_6_)" fill="none" stroke="#000000" stroke-width="2.387" d="M62.662,167.791
		c6.952-17.034,29.999-32.67,55.852-37.893"/>
</g>
</svg>
