<?xml version="1.0" encoding="utf-8"?>
<!-- Generator: Adobe Illustrator 16.0.0, SVG Export Plug-In . SVG Version: 6.00 Build 0)  -->
<!DOCTYPE svg PUBLIC "-//W3C//DTD SVG 1.1//EN" "http://www.w3.org/Graphics/SVG/1.1/DTD/svg11.dtd">
<svg version="1.1" id="Ebene_1" xmlns="http://www.w3.org/2000/svg" xmlns:xlink="http://www.w3.org/1999/xlink" x="0px" y="0px"
	 width="340.157px" height="340.157px" viewBox="0 0 340.157 340.157" enable-background="new 0 0 340.157 340.157"
	 xml:space="preserve">
<g>
	<defs>
		<rect id="SVGID_1_" width="340.157" height="340.157"/>
	</defs>
	<clipPath id="SVGID_2_">
		<use xlink:href="#SVGID_1_"  overflow="visible"/>
	</clipPath>
	<path clip-path="url(#SVGID_2_)" d="M33.458,0C33.458,0,0,0,0,33.458V306.7c0,0,0,33.457,33.458,33.457H306.7
		c0,0,33.458,0,33.458-33.457V33.458c0,0,0-33.458-33.458-33.458H33.458z"/>
	<path clip-path="url(#SVGID_2_)" fill="#989898" d="M322.468,284.915c-1.126-0.646-2.748-0.968-4.866-0.968
		c-2.881,0-5.189,0.977-6.928,2.93v-2.434h-6.208v26.594h6.208V295.89c0-1.887,0.559-3.483,1.677-4.792
		c1.116-1.307,2.396-1.962,3.836-1.962c1.323,0,2.541,0.365,3.649,1.093L322.468,284.915z M291.579,301.005
		c0,3.725-1.862,5.587-5.586,5.587c-2.765,0-4.147-1.192-4.147-3.575c0-3.212,2.45-4.817,7.351-4.817
		c0.529,0,1.324,0.107,2.383,0.322V301.005z M293.615,310.54c0.712,0.662,1.515,0.993,2.409,0.993c0.811,0,1.53-0.104,2.16-0.311
		c0.629-0.207,1.199-0.757,1.713-1.65c-1.423-0.911-2.136-3.138-2.136-6.681v-5.686c0-5.148-0.943-8.645-2.83-10.49
		c-1.888-1.846-4.858-2.769-8.914-2.769c-2.946,0-5.487,0.513-7.622,1.538l1.34,4.818c1.573-0.778,3.525-1.168,5.859-1.168
		c3.956,0,5.936,1.565,5.936,4.693c-0.994-0.248-1.854-0.372-2.583-0.372c-4.254,0-7.536,0.869-9.845,2.606
		c-2.31,1.738-3.464,4.147-3.464,7.227c0,2.632,0.819,4.664,2.459,6.095c1.638,1.432,3.889,2.148,6.753,2.148
		c1.522,0,2.983-0.294,4.383-0.882c1.398-0.588,2.379-1.345,2.941-2.271C292.424,309.158,292.903,309.878,293.615,310.54
		 M257.19,293.531c3.012,0,5.123,0.472,6.331,1.416c1.208,0.942,1.812,2.449,1.812,4.519c0,2.268-0.649,3.89-1.949,4.866
		s-3.39,1.465-6.27,1.465c-0.811,0-1.871-0.057-3.178-0.173v-12.019C255.477,293.556,256.561,293.531,257.19,293.531
		 M257.637,279.726c3.823,0,5.735,1.399,5.735,4.196c0,3.162-2.102,4.743-6.307,4.743c-1.092,0-2.135-0.033-3.128-0.101v-8.715
		C255.394,279.767,256.627,279.726,257.637,279.726 M268.289,308.119c2.499-1.945,3.749-4.573,3.749-7.884
		c0-4.917-2.259-8.16-6.779-9.733c3.046-1.672,4.569-3.948,4.569-6.828c0-2.996-1.063-5.301-3.189-6.915
		c-2.129-1.614-5.078-2.421-8.853-2.421c-1.971,0-5.405,0.116-10.305,0.347v36.353h11.124
		C262.562,311.037,265.789,310.063,268.289,308.119 M234.694,304.68c-0.265,0.364-0.832,0.725-1.701,1.08
		c-0.869,0.356-1.602,0.534-2.198,0.534c-5.33,0-7.995-2.764-7.995-8.293c0-2.831,0.67-5.003,2.012-6.519
		c1.341-1.515,3.253-2.271,5.735-2.271c1.44,0,2.822,0.53,4.147,1.589V304.68z M240.901,311.037v-37.99l-6.207,1.489v10.652
		c-1.656-0.828-3.493-1.241-5.513-1.241c-3.676,0-6.733,1.319-9.175,3.96s-3.663,6.062-3.663,10.268
		c0,4.204,1.064,7.482,3.191,9.832c2.127,2.351,5.044,3.526,8.752,3.526c1.308,0,2.574-0.211,3.799-0.634
		c1.226-0.422,2.095-0.914,2.608-1.477v1.614H240.901z M210.882,311.037v-16.314c0-3.393-0.915-6.037-2.743-7.933
		c-1.829-1.896-4.325-2.843-7.486-2.843c-3.295,0-5.786,0.992-7.475,2.979l-1.142-2.483h-4.47v26.594h6.208v-19.22
		c0.579-0.761,1.386-1.397,2.421-1.911c1.034-0.514,2.007-0.771,2.917-0.771c1.97,0,3.389,0.522,4.258,1.565
		c0.87,1.043,1.304,2.697,1.304,4.966v15.37H210.882z M180.862,311.061v-26.617h-6.208v18.275c-0.397,0.96-1.2,1.804-2.408,2.532
		c-1.209,0.729-2.516,1.093-3.923,1.093c-3.063,0-4.594-1.705-4.594-5.115v-16.785h-6.207v17.258c0,6.555,3.087,9.832,9.261,9.832
		c1.292,0,2.707-0.266,4.246-0.794c1.54-0.53,2.748-1.167,3.625-1.912v2.233H180.862z M135.175,291.297
		c1.142-1.523,2.681-2.285,4.618-2.285c4.204,0,6.307,2.889,6.307,8.666c0,2.814-0.567,4.983-1.701,6.506
		c-1.134,1.523-2.669,2.284-4.606,2.284c-4.221,0-6.332-2.93-6.332-8.79C133.461,294.947,134.032,292.82,135.175,291.297
		 M130.37,307.747c2.243,2.523,5.384,3.786,9.423,3.786c3.956,0,7.072-1.249,9.349-3.749c2.275-2.499,3.414-5.868,3.414-10.106
		c0-4.254-1.118-7.605-3.352-10.056c-2.235-2.45-5.372-3.675-9.411-3.675c-3.84,0-6.932,1.274-9.274,3.823
		c-2.343,2.55-3.513,5.853-3.513,9.907C127.006,301.866,128.127,305.222,130.37,307.747 M110.568,311.657
		c3.907,0,7.023-0.951,9.349-2.855c2.325-1.903,3.488-4.329,3.488-7.275c0-1.639-0.281-3.125-0.844-4.456
		c-0.563-1.333-1.382-2.5-2.458-3.502c-1.076-1.002-2.831-2.098-5.264-3.289c-4.619-2.252-6.928-4.421-6.928-6.507
		c0-1.258,0.41-2.279,1.229-3.065c0.82-0.786,1.974-1.181,3.464-1.181c2.516,0,4.908,0.812,7.176,2.435l1.962-5.562
		c-1.97-1.572-5.058-2.358-9.262-2.358c-3.228,0-5.872,0.927-7.933,2.781c-2.061,1.854-3.092,4.188-3.092,7.002
		c0,1.506,0.261,2.88,0.783,4.122c0.521,1.24,1.266,2.312,2.234,3.215c0.969,0.902,2.847,2.053,5.637,3.452
		c2.789,1.398,4.631,2.66,5.524,3.785c0.894,1.126,1.341,2.31,1.341,3.552c0,2.647-1.895,3.973-5.686,3.973
		c-2.467,0-4.974-0.895-7.523-2.682l-2.384,5.784C104.112,310.78,107.175,311.657,110.568,311.657 M87.363,310.962
		c0.869,0.877,1.925,1.315,3.166,1.315c1.242,0,2.297-0.438,3.166-1.315c0.869-0.877,1.304-1.938,1.304-3.178
		c0-1.242-0.435-2.297-1.304-3.166c-0.869-0.869-1.924-1.305-3.166-1.305c-1.241,0-2.297,0.436-3.166,1.305
		s-1.303,1.924-1.303,3.166C86.06,309.024,86.494,310.085,87.363,310.962 M87.363,290.85c0.869,0.877,1.925,1.316,3.166,1.316
		c1.242,0,2.297-0.439,3.166-1.316c0.869-0.877,1.304-1.937,1.304-3.178c0-1.242-0.435-2.297-1.304-3.166
		c-0.869-0.869-1.924-1.304-3.166-1.304c-1.241,0-2.297,0.435-3.166,1.304s-1.303,1.924-1.303,3.166
		C86.06,288.913,86.494,289.973,87.363,290.85 M71.857,283.947c-4.486,0-8.029,1.291-10.627,3.874
		c-2.599,2.581-3.899,5.967-3.899,10.154c0,4.254,1.188,7.577,3.564,9.97c2.375,2.393,5.615,3.588,9.72,3.588
		c1.838,0,3.431-0.149,4.78-0.447c1.349-0.298,2.926-1.009,4.73-2.135l-2.284-4.893c-1.755,1.524-3.783,2.285-6.083,2.285
		c-5.314,0-7.971-2.789-7.971-8.368c0-2.764,0.683-4.929,2.049-6.493c1.365-1.563,3.223-2.347,5.574-2.347
		c2.45,0,4.403,0.688,5.86,2.062l2.657-4.644C77.642,284.815,74.952,283.947,71.857,283.947"/>
	<path clip-path="url(#SVGID_2_)" fill="#006AB1" d="M39.851,302.893c0,2.765,0.712,4.896,2.135,6.394
		c1.424,1.498,3.46,2.247,6.109,2.247c2.665,0,4.717-0.248,6.157-0.745v-5.711c-1.291,0.812-2.681,1.217-4.171,1.217
		c-1.49,0-2.533-0.393-3.129-1.18c-0.596-0.786-0.893-2.131-0.893-4.035v-11.645h7.3v-4.991h-7.3v-7.697l-6.208,2.284v5.413h-3.079
		v4.991h3.079V302.893z"/>
	<path clip-path="url(#SVGID_2_)" fill="#E1001A" d="M36.772,274.512c-2.119-0.646-3.915-0.969-5.388-0.969
		c-2.847,0-5.169,1.001-6.965,3.005c-1.796,2.003-2.76,4.635-2.893,7.896h-3.898v5.115h3.874v21.478h6.207v-21.478h5.413v-5.115
		H27.61c-0.017-0.215-0.025-0.43-0.025-0.646c0-1.474,0.41-2.715,1.229-3.725c0.819-1.01,1.816-1.515,2.992-1.515
		c0.728,0,1.771,0.224,3.129,0.671L36.772,274.512z"/>
</g>
<polygon fill="#98989B" points="186.141,48.76 259.277,16.255 251.15,89.387 251.15,24.383 186.141,48.762 "/>
<g>
	<defs>
		<rect id="SVGID_3_" x="61.556" y="14.319" width="199.138" height="241.081"/>
	</defs>
	<clipPath id="SVGID_4_">
		<use xlink:href="#SVGID_3_"  overflow="visible"/>
	</clipPath>
	<polygon clip-path="url(#SVGID_4_)" fill="none" stroke="#98989B" stroke-width="2.387" points="186.141,48.76 259.277,16.255 
		251.15,89.387 251.15,24.383 186.141,48.762 	"/>
</g>
<polygon fill="#98989B" points="243.027,40.633 242.838,205.75 235.243,205.874 234.899,53.023 129.255,89.386 129.255,81.264 
	243.027,40.631 "/>
<polygon fill="none" stroke="#98989B" stroke-width="2.387" points="243.027,40.633 242.838,205.75 235.243,205.874 234.899,53.023 
	129.255,89.386 129.255,81.264 243.027,40.631 "/>
<polygon fill="#98989B" points="129.254,89.39 129.254,154.403 140.488,154.403 140.817,85.046 "/>
<polygon fill="none" stroke="#98989B" stroke-width="2.387" points="129.254,89.39 129.254,154.403 140.488,154.403 140.817,85.046 
	"/>
<g>
	<defs>
		<rect id="SVGID_5_" x="61.556" y="14.319" width="199.138" height="241.081"/>
	</defs>
	<clipPath id="SVGID_6_">
		<use xlink:href="#SVGID_5_"  overflow="visible"/>
	</clipPath>
	<path clip-path="url(#SVGID_6_)" fill="#98989B" d="M139.048,149.108c5.486,9.473-3.985,23.759-21.154,31.907
		c-17.168,8.148-35.533,7.074-41.018-2.398c-5.485-9.473,3.986-23.759,21.154-31.907C115.2,138.561,133.564,139.635,139.048,149.108
		"/>
	<path clip-path="url(#SVGID_6_)" fill="none" stroke="#98989B" stroke-width="2.387" d="M139.048,149.108
		c5.486,9.473-3.985,23.759-21.154,31.907c-17.168,8.148-35.533,7.074-41.018-2.398c-5.485-9.473,3.986-23.759,21.154-31.907
		C115.2,138.561,133.564,139.635,139.048,149.108z"/>
	<path clip-path="url(#SVGID_6_)" d="M88.708,179.355c-9.77-1.155-10.063-9.094-0.653-17.732
		c9.409-8.637,24.958-14.702,34.729-13.546c1.153,0.136,2.195,0.372,3.109,0.703"/>
	<path clip-path="url(#SVGID_6_)" fill="none" stroke="#98989B" stroke-width="2.387" d="M88.708,179.355
		c-9.77-1.155-10.063-9.094-0.653-17.732c9.409-8.637,24.958-14.702,34.729-13.546c1.153,0.136,2.195,0.372,3.109,0.703"/>
	<path clip-path="url(#SVGID_6_)" fill="#98989B" d="M89.186,180.298c1.522-9.78,17.635-23.382,35.99-30.379
		c1.97-0.751,3.92-1.407,5.83-1.961"/>
	<path clip-path="url(#SVGID_6_)" fill="none" stroke="#98989B" stroke-width="2.387" d="M89.186,180.298
		c1.522-9.78,17.635-23.382,35.99-30.379c1.97-0.751,3.92-1.407,5.83-1.961"/>
	<polygon clip-path="url(#SVGID_6_)" fill="#98989B" points="141.149,113.769 234.898,97.517 234.898,101.884 141.149,124.997 	"/>
	<polygon clip-path="url(#SVGID_6_)" fill="none" stroke="#98989B" stroke-width="2.387" points="141.149,113.769 234.898,97.517 
		234.898,101.884 141.149,124.997 	"/>
	<polygon clip-path="url(#SVGID_6_)" fill="#98989B" points="142.244,90.644 229.786,60.459 229.456,93.632 221.748,94.293 
		221.748,89.39 186.141,97.517 194.27,81.266 	"/>
	<polygon clip-path="url(#SVGID_6_)" fill="none" stroke="#000000" stroke-width="0.443" points="142.244,90.644 229.786,60.459 
		229.456,93.632 221.748,94.293 221.748,89.39 186.141,97.517 194.27,81.266 	"/>
	<path clip-path="url(#SVGID_6_)" fill="#98989B" d="M241.471,196.417c5.738,10.939-4.169,27.433-22.129,36.841
		c-17.959,9.41-37.169,8.172-42.906-2.767c-5.739-10.938,4.169-27.432,22.128-36.841C216.523,184.24,235.733,185.48,241.471,196.417
		"/>
	<path clip-path="url(#SVGID_6_)" fill="none" stroke="#98989B" stroke-width="2.387" d="M241.471,196.417
		c5.738,10.939-4.169,27.433-22.129,36.841c-17.959,9.41-37.169,8.172-42.906-2.767c-5.739-10.938,4.169-27.432,22.128-36.841
		C216.523,184.24,235.733,185.48,241.471,196.417z"/>
	<path clip-path="url(#SVGID_6_)" d="M189.103,231.88c-10.221-1.334-10.526-10.5-0.682-20.473
		c9.844-9.975,26.108-16.979,36.33-15.644c1.205,0.157,2.295,0.431,3.252,0.812"/>
	<path clip-path="url(#SVGID_6_)" fill="none" stroke="#000000" stroke-width="2.387" d="M189.103,231.88
		c-10.221-1.334-10.526-10.5-0.682-20.473c9.844-9.975,26.108-16.979,36.33-15.644c1.205,0.157,2.295,0.431,3.252,0.812"/>
	<path clip-path="url(#SVGID_6_)" fill="#98989B" d="M189.604,232.959c1.593-11.293,18.448-27,37.649-35.079
		c2.059-0.868,4.1-1.625,6.098-2.264"/>
	<path clip-path="url(#SVGID_6_)" fill="none" stroke="#98989B" stroke-width="2.387" d="M189.604,232.959
		c1.593-11.293,18.448-27,37.649-35.079c2.059-0.868,4.1-1.625,6.098-2.264"/>
	<path clip-path="url(#SVGID_6_)" fill="#98989B" d="M250.658,214.353c1.892,14.639-9.48,30.229-25.399,34.822
		c-5.954,1.718-11.981,1.698-17.255-0.057"/>
	<path clip-path="url(#SVGID_6_)" fill="none" stroke="#98989B" stroke-width="2.387" d="M250.658,214.353
		c1.892,14.639-9.48,30.229-25.399,34.822c-5.954,1.718-11.981,1.698-17.255-0.057"/>
	<path clip-path="url(#SVGID_6_)" d="M252.722,211.76c-5.989,18.198-27.729,35.729-52.686,42.489"/>
	<path clip-path="url(#SVGID_6_)" fill="none" stroke="#000000" stroke-width="2.387" d="M252.722,211.76
		c-5.989,18.198-27.729,35.729-52.686,42.489"/>
	<path clip-path="url(#SVGID_6_)" fill="#98989B" d="M65.575,163.082c-0.673-14.745,11.953-29.34,28.198-32.597
		c6.077-1.22,12.081-0.7,17.19,1.486"/>
	<path clip-path="url(#SVGID_6_)" fill="none" stroke="#98989B" stroke-width="2.387" d="M65.575,163.082
		c-0.673-14.745,11.953-29.34,28.198-32.597c6.077-1.22,12.081-0.7,17.19,1.486"/>
	<path clip-path="url(#SVGID_6_)" d="M62.662,167.791c6.952-17.034,29.999-32.67,55.852-37.893"/>
	<path clip-path="url(#SVGID_6_)" fill="none" stroke="#000000" stroke-width="2.387" d="M62.662,167.791
		c6.952-17.034,29.999-32.67,55.852-37.893"/>
</g>
</svg>
